<svg width="570" height="570" viewBox="0 0 570 570" fill="none" xmlns="http://www.w3.org/2000/svg">
<path d="M0 285C0 127.599 127.599 0 285 0C442.401 0 570 127.599 570 285C570 442.401 442.401 570 285 570C127.599 570 0 442.401 0 285Z" fill="#131313"/>
<path d="M251.333 299.714L281.778 330.143L342.667 269.286M297.954 194.169L296.046 192.26C290.78 186.997 288.147 184.366 285.075 182.484C282.35 180.816 279.38 179.586 276.275 178.841C272.771 178 269.047 178 261.601 178H208.711C191.661 178 183.135 178 176.623 181.317C170.894 184.234 166.237 188.889 163.318 194.614C160 201.123 160 209.644 160 226.686V342.314C160 359.356 160 367.877 163.318 374.386C166.237 380.111 170.894 384.767 176.623 387.683C183.135 391 191.661 391 208.711 391H385.289C402.339 391 410.865 391 417.377 387.683C423.105 384.767 427.763 380.111 430.682 374.386C434 367.877 434 359.356 434 342.314V257.114C434 240.073 434 231.552 430.682 225.043C427.763 219.317 423.105 214.662 417.377 211.745C410.865 208.429 402.339 208.429 385.289 208.429H332.399C324.953 208.429 321.229 208.429 317.725 207.588C314.62 206.842 311.65 205.613 308.925 203.945C305.853 202.063 303.22 199.432 297.954 194.169Z" stroke="white" stroke-width="25" stroke-linecap="round" stroke-linejoin="round"/>
</svg>
